HIERARCHY
ROOT Hips
{
	OFFSET -183.429703 89.960052 22.660780
	CHANNELS 6 Xposition Yposition Zposition Zrotation Yrotation Xrotation 
	JOINT RightUpLeg
	{
		OFFSET 0.103454 1.857828 10.548502
		CHANNELS 3 Xrotation Yrotation Zrotation
		JOINT RightLeg
		{
			OFFSET 43.500000 -0.000023 -0.000008
			CHANNELS 3 Xrotation Yrotation Zrotation
			JOINT RightFoot
			{
				OFFSET 42.372192 0.000008 0.000008
				CHANNELS 3 Xrotation Yrotation Zrotation
				JOINT RightToe
				{
					OFFSET 17.299997 -0.000001 0.000000
					CHANNELS 3 Xrotation Yrotation Zrotation
					End Site
					{
						OFFSET 0.000000 0.000000 0.000000
					}
				}
			}
		}
	}
	JOINT LeftUpLeg
	{
		OFFSET 0.103459 1.857828 -10.548505
		CHANNELS 3 Xrotation Yrotation Zrotation
		JOINT LeftLeg
		{
			OFFSET 43.500046 -0.000027 0.000015
			CHANNELS 3 Xrotation Yrotation Zrotation
			JOINT LeftFoot
			{
				OFFSET 42.372261 -0.000008 0.000019
				CHANNELS 3 Xrotation Yrotation Zrotation
				JOINT LeftToe
				{
					OFFSET 17.299992 -0.000006 -0.000002
					CHANNELS 3 Xrotation Yrotation Zrotation
					End Site
					{
						OFFSET 0.000000 0.000000 0.000000
					}
				}
			}
		}
	}
	JOINT Spine
	{
		OFFSET 6.901967 -2.603729 0.000006
		CHANNELS 3 Xrotation Yrotation Zrotation
		JOINT Spine1
		{
			OFFSET 12.588098 -0.000001 -0.000005
			CHANNELS 3 Xrotation Yrotation Zrotation
			JOINT Spine2
			{
				OFFSET 12.343207 0.000001 -0.000003
				CHANNELS 3 Xrotation Yrotation Zrotation
				JOINT Neck
				{
					OFFSET 25.832897 -0.000006 -0.000001
					CHANNELS 3 Xrotation Yrotation Zrotation
					JOINT Head
					{
						OFFSET 11.766602 0.000010 0.000005
						CHANNELS 3 Xrotation Yrotation Zrotation
						End Site
						{
							OFFSET 0.000000 0.000000 0.000000
						}
					}
				}
				JOINT RightShoulder
				{
					OFFSET 19.745901 -1.480368 6.000114
					CHANNELS 3 Xrotation Yrotation Zrotation
					JOINT RightArm
					{
						OFFSET 11.284125 -0.000009 -0.000026
						CHANNELS 3 Xrotation Yrotation Zrotation
						JOINT RightForeArm
						{
							OFFSET 33.000046 0.000005 0.000037
							CHANNELS 3 Xrotation Yrotation Zrotation
							JOINT RightHand
							{
								OFFSET 25.200003 0.000016 -0.000001
								CHANNELS 3 Xrotation Yrotation Zrotation
								End Site
								{
									OFFSET 0.000000 0.000000 0.000000
								}
							}
						}
					}
				}
				JOINT LeftShoulder
				{
					OFFSET 19.746088 -1.480377 -6.000074
					CHANNELS 3 Xrotation Yrotation Zrotation
					JOINT LeftArm
					{
						OFFSET 11.284132 -0.000015 -0.000021
						CHANNELS 3 Xrotation Yrotation Zrotation
						JOINT LeftForeArm
						{
							OFFSET 33.000107 0.000015 0.000018
							CHANNELS 3 Xrotation Yrotation Zrotation
							JOINT LeftHand
							{
								OFFSET 25.199774 0.000138 0.000420
								CHANNELS 3 Xrotation Yrotation Zrotation
								End Site
								{
									OFFSET 0.000000 0.000000 0.000000
								}
							}
						}
					}
				}
			}
		}
	}
}
MOTION
Frames: 7
Frame Time: 0.033333
-56.512138 90.769547 47.804901 90.354196 -0.416807 -24.012858 171.881560 -6.754397 171.886819 -23.142836 2.407643 -6.627266 87.471309 2.737728 -10.352802 21.454557 0.003108 0.000017 169.881203 8.143402 -170.173139 -22.612308 -1.120887 5.140303 80.766297 -1.410772 9.043325 21.454555 -0.003088 -0.000000 6.368419 -0.418578 0.092001 2.723397 -0.839105 0.174343 2.405276 -0.838174 0.179402 14.877731 -11.034748 -18.932752 -23.116304 17.282885 -28.332760 171.118464 -75.249533 7.687912 -2.644412 60.031448 19.012709 -34.656889 -11.134977 1.103335 7.081614 -1.687103 7.744666 -164.311812 81.038139 17.450404 -20.563155 -61.680727 -45.693177 -33.098595 13.637075 -1.204974 12.469561 1.350083 13.691092 
-56.501862 90.784508 47.648842 90.354189 -0.479817 -23.421632 171.781361 -6.918902 172.190462 -23.156255 2.357116 -6.413153 87.345661 2.564730 -10.440421 21.454557 0.003108 0.000017 170.122185 8.009093 -169.768546 -22.521311 -1.195795 5.294295 80.787457 -1.513937 9.060567 21.454551 -0.003086 0.000002 6.359123 -0.398161 0.147565 2.704462 -0.799532 0.285991 2.386331 -0.797929 0.290815 14.871837 -10.930801 -18.762581 -23.015501 17.308971 -28.136473 171.830402 -75.156950 6.962854 -2.278039 60.059479 19.366866 -34.218712 -11.009736 1.085411 6.952289 -2.410683 6.167739 -163.951724 80.980492 17.816144 -20.591437 -61.524247 -45.381102 -32.836998 13.732556 -1.202346 12.558367 1.671154 12.163002 
-56.512901 90.789047 47.506409 90.356292 -0.542479 -22.953221 171.664756 -7.070011 172.387978 -23.283476 2.337262 -6.224629 87.247218 2.413725 -10.511069 21.454558 0.003108 0.000017 170.315398 7.928496 -169.180166 -22.508284 -1.282772 5.262464 80.852494 -1.504423 9.018893 21.454553 -0.003088 0.000001 6.355214 -0.386700 0.194559 2.709865 -0.777704 0.380207 2.391749 -0.775532 0.384894 14.811994 -10.901952 -18.624891 -22.910857 17.399379 -28.009713 172.291194 -75.106427 6.493122 -1.657230 60.109947 19.694393 -33.979607 -11.026569 1.081241 6.922890 -2.973912 4.661118 -163.700032 81.065166 18.070847 -20.958608 -61.548925 -45.175650 -32.458135 13.857499 -1.200989 12.862781 2.371376 10.077349 
-56.547421 90.798737 47.359219 90.358751 -0.592909 -22.625171 171.631889 -7.185899 172.446034 -23.327253 2.378624 -6.060841 87.125927 2.275567 -10.586151 21.454560 0.003109 0.000017 170.466659 7.864196 -168.810106 -22.543984 -1.293922 5.262921 80.933288 -1.523331 8.964896 21.454550 -0.003096 -0.000000 6.353684 -0.382162 0.239973 2.715689 -0.769683 0.471115 2.397560 -0.766958 0.475755 14.818249 -10.976673 -18.571718 -22.827421 17.504866 -27.986454 172.819823 -75.054866 5.953973 -1.043718 60.095781 19.859677 -33.829623 -11.052526 1.079665 7.007271 -3.210378 4.068908 -163.666700 81.240988 18.103343 -21.386395 -61.714803 -45.011937 -32.089663 13.951470 -1.199619 13.193168 2.821636 8.853184 
-56.604549 90.811127 47.207211 90.359790 -0.628330 -22.402203 171.684332 -7.253999 172.500170 -23.253989 2.453330 -5.976821 87.003032 2.190081 -10.671540 21.454558 0.003108 0.000017 170.578592 7.775300 -168.862138 -22.608734 -1.225989 5.439783 81.020298 -1.655637 8.960748 21.454555 -0.003090 -0.000000 6.353324 -0.382445 0.278159 2.706036 -0.771097 0.547500 2.387924 -0.767916 0.552146 14.956885 -11.173892 -18.584513 -22.814442 17.596063 -28.042802 173.555803 -74.954701 5.203899 -0.559001 59.912726 19.931684 -33.660497 -10.991610 1.072002 7.138953 -3.095124 4.384327 -163.876141 81.379259 17.889905 -21.483612 -61.946647 -44.610397 -31.997326 13.923083 -1.196933 13.393687 2.875853 8.360198 
-56.687901 90.824417 47.060051 90.357918 -0.654769 -22.201928 171.767018 -7.274995 172.792830 -23.162329 2.478090 -6.048626 86.885067 2.213053 -10.762129 21.454558 0.003108 0.000017 170.726616 7.664003 -169.094788 -22.610216 -1.155645 5.713877 81.103264 -1.843003 9.010584 21.454553 -0.003094 -0.000001 6.353985 -0.369758 0.280434 2.693393 -0.745751 0.552381 2.375281 -0.742542 0.556873 15.179733 -11.713130 -18.582595 -22.897936 17.732517 -28.144918 174.552629 -74.653988 4.192180 -0.139742 59.472267 20.072690 -33.453601 -10.863181 1.059148 7.259617 -2.767484 5.012329 -164.293398 81.547220 17.465760 -21.527281 -62.217812 -44.224447 -32.005402 13.854271 -1.196035 13.316655 2.795798 8.601661 
-56.800961 90.836273 46.931141 90.320776 -0.672915 -21.964871 171.858160 -7.265000 173.354764 -23.131699 2.387962 -6.242972 86.780251 2.330597 -10.817979 21.454558 0.003108 0.000017 170.971246 7.585800 -169.118257 -22.519945 -1.158793 5.895401 81.186962 -1.960721 9.077375 21.454553 -0.003093 -0.000001 6.356663 -0.354476 0.255154 2.699005 -0.714637 0.502159 2.380876 -0.711723 0.506467 15.442525 -12.395608 -18.558211 -23.128397 17.856013 -28.256457 175.197767 -74.344355 3.540015 0.344995 58.996155 20.386038 -33.245037 -10.764157 1.048193 7.349766 -2.420821 5.431658 -164.298998 81.741149 17.458845 -21.943948 -62.423578 -44.871993 -31.862245 13.982762 -1.201382 12.976855 2.844030 10.061991 
